General
Complete name                    : Gainsbourg.Vie.héroïque.2010.mkv.Zen_Bud
Format                           : Matroska
File size                        : 1.55 GiB
Duration                         : 2h 9mn
Overall bit rate                 : 1 715 Kbps
Writing application              : HandBrake 0.9.4

Video

Format                           : AVC
Duration                         : 2h 9mn
Bit rate                         : 1 233 Kbps
Width                            : 720 pixels
Height                           : 436 pixels
Display aspect ratio             : 2.35:1
Stream size                      : 1.12 GiB (72%)
Writing library                  : x264 core 79


Audio

Format                           : AC-3
Bit rate                         : 448 Kbps
Channel(s)                       : 6 channels
Channel positions                : Front: L C R, Side: L R, LFE
Sampling rate                    : 48.0 KHz
Stream size                      : 416 MiB (26%)
Language                         : French

Text #1
Language                         : Swedish

Text #2
Language                         : Norwegian

Text #3
Language                         : Danish

Text #4
Language                         : Finnish

Text #5
Language                         : Icelandic

